<svg width="22" height="23" viewBox="0 0 22 23" fill="none" xmlns="http://www.w3.org/2000/svg">
<path d="M11.5804 0.0391235L8.95927 3.99922L10.3523 4.1742C9.92006 5.58655 9.83217 6.55911 9.93577 8.49233C10.5985 8.3878 11.1339 8.35053 11.8382 8.55748C11.3753 6.83061 11.4237 6.24059 11.6095 4.34961L13.1386 4.45634L11.5804 0.0391235ZM21.8218 0.142717L16.7424 1.55037L17.7228 2.76795C15.4019 4.22197 13.9573 5.37176 12.8131 8.54126C13.4319 8.53414 14.1302 8.67819 14.8838 8.96333C15.1523 6.86961 16.4653 5.39426 18.601 3.8578L19.5377 5.02105L21.8218 0.142717ZM0.0917358 0.250999L3.17981 5.05498L4.07438 3.70915C5.74097 5.22978 6.79992 7.28712 6.76069 8.74494C7.63106 8.33731 8.16352 8.29836 9.09202 8.56784C8.7121 7.1052 7.04935 3.4715 4.79644 2.51614L5.57316 1.29565L0.0917827 0.250952L0.0917358 0.250999ZM13.0347 10.3135C12.7872 10.3191 12.5561 10.4267 12.2408 10.7632L11.9331 11.0899L11.6138 10.7749C11.2675 10.4337 10.9943 10.3394 10.7173 10.3516C10.4403 10.3638 10.1147 10.5095 9.75047 10.8042L9.45905 11.04L9.1822 10.7881C8.76502 10.4107 8.40947 10.2988 8.06892 10.3164C7.82105 10.3292 7.56384 10.4226 7.3072 10.5859L9.22749 14.0401C9.95189 14.4831 11.4322 14.6498 12.4501 14.1368L14.3061 10.6988C13.9541 10.5552 13.6377 10.4081 13.3642 10.3516C13.2652 10.3311 13.1734 10.3162 13.0845 10.3135C13.0679 10.3131 13.0513 10.3131 13.0347 10.3135ZM8.81738 14.8223V14.8224C7.97199 15.4197 7.29319 16.4498 7.03027 17.9585C6.7755 19.4209 7.17694 20.4085 7.88728 21.0816C8.59767 21.7547 9.66394 22.1005 10.7467 22.0864C11.8295 22.0723 12.9093 21.6969 13.6353 21.0113C14.3614 20.3256 14.772 19.3507 14.5391 17.9556C14.2983 16.5139 13.6766 15.5112 12.8896 14.9044C11.5545 15.6101 9.88514 15.4601 8.81733 14.8223H8.81738Z" fill="white"/>
</svg>
