<svg width="24" height="24" viewBox="0 0 24 24" fill="none" xmlns="http://www.w3.org/2000/svg">
<path d="M5 21C4.45 21 3.979 20.804 3.587 20.412C3.195 20.02 2.99934 19.5493 3 19V5C3 4.45 3.196 3.979 3.588 3.587C3.98 3.195 4.45067 2.99934 5 3H19C19.55 3 20.021 3.196 20.413 3.588C20.805 3.98 21.0007 4.45067 21 5V19C21 19.55 20.804 20.021 20.412 20.413C20.02 20.805 19.5493 21.0007 19 21H5ZM12 16C12.5333 16 13.025 15.8623 13.475 15.587C13.925 15.3117 14.2917 14.9493 14.575 14.5C14.675 14.35 14.8 14.229 14.95 14.137C15.1 14.045 15.2667 13.9993 15.45 14H19V5H5V14H8.55C8.73334 14 8.9 14.046 9.05 14.138C9.2 14.23 9.325 14.3507 9.425 14.5C9.70834 14.95 10.075 15.3127 10.525 15.588C10.975 15.8633 11.4667 16.0007 12 16ZM11 10.15V7C11 6.71667 11.096 6.479 11.288 6.287C11.48 6.095 11.7173 5.99934 12 6C12.2833 6 12.521 6.096 12.713 6.288C12.905 6.48 13.0007 6.71734 13 7V10.15L13.875 9.275C13.975 9.175 14.0877 9.1 14.213 9.05C14.3383 9 14.4633 8.979 14.588 8.987C14.7127 8.99567 14.8377 9.025 14.963 9.075C15.0883 9.125 15.2007 9.2 15.3 9.3C15.4833 9.5 15.5793 9.73334 15.588 10C15.5967 10.2667 15.5007 10.5 15.3 10.7L12.7 13.3C12.6 13.4 12.4917 13.471 12.375 13.513C12.2583 13.555 12.1333 13.5757 12 13.575C11.8667 13.575 11.7417 13.5543 11.625 13.513C11.5083 13.4717 11.4 13.4007 11.3 13.3L8.7 10.7C8.6 10.6 8.525 10.4877 8.475 10.363C8.425 10.2383 8.4 10.1133 8.4 9.988C8.4 9.86267 8.425 9.74167 8.475 9.625C8.525 9.50834 8.6 9.4 8.7 9.3C8.9 9.1 9.13767 8.99567 9.413 8.987C9.68834 8.97834 9.92567 9.07433 10.125 9.275L11 10.15Z" fill="#85B6FF"/>
</svg>
