<svg width="24" height="24" viewBox="0 0 24 24" fill="none" xmlns="http://www.w3.org/2000/svg">
<path d="M21.4048 12.5819C21.4983 12.256 21.813 12.0545 22.1298 11.9336V11.9336C22.3102 11.8647 22.4748 11.7601 22.6139 11.6262C22.7529 11.4922 22.8635 11.3316 22.9391 11.1539C23.0146 10.9762 23.0536 10.7851 23.0536 10.592C23.0536 10.3989 23.0146 10.2078 22.9391 10.0301C22.8635 9.85242 22.7529 9.69179 22.6139 9.55783C22.4748 9.42387 22.3102 9.31932 22.1298 9.25045C21.9494 9.18158 21.757 9.1498 21.564 9.157V9.157C21.5104 9.157 21.4625 9.12738 21.4493 9.07545L21.1365 7.84234C21.0478 7.49269 21.2031 7.13466 21.3793 6.81991V6.81991C21.4767 6.64604 21.5366 6.45375 21.5553 6.25536C21.5739 6.05697 21.5509 5.85687 21.4878 5.66789C21.4246 5.47891 21.3226 5.30522 21.1884 5.15796C21.0541 5.0107 20.8906 4.89313 20.7082 4.81277C20.5259 4.73241 20.3288 4.69105 20.1295 4.69134C19.9302 4.69162 19.7332 4.73355 19.5511 4.81443V4.81443C19.2274 4.95821 18.8531 5.05925 18.5319 4.90994L14.6001 3.08235C14.3629 2.9721 14.2588 2.69754 14.262 2.436V2.436C14.2671 2.2443 14.2337 2.05353 14.1638 1.87494C14.0939 1.69636 13.989 1.53357 13.8552 1.39619C13.7214 1.25882 13.5615 1.14963 13.3848 1.07508C13.2081 1.00052 13.0183 0.962112 12.8265 0.962112C12.6347 0.962112 12.4449 1.00052 12.2682 1.07508C12.0915 1.14963 11.9316 1.25882 11.7978 1.39619C11.664 1.53357 11.5591 1.69636 11.4892 1.87494C11.4193 2.05353 11.3859 2.2443 11.391 2.436V2.436C11.3952 2.52017 11.3462 2.60035 11.2656 2.62506L9.26529 3.23852C8.6775 3.41878 8.04043 3.1378 7.43568 3.027V3.027C7.09832 2.96519 6.74998 3.0267 6.45418 3.2003C6.15838 3.3739 5.93483 3.64803 5.82429 3.97271V3.97271C5.62745 4.55086 5.54819 5.24026 5.09261 5.64702L3.49837 7.07041C3.1562 7.3759 2.64669 7.37845 2.188 7.376V7.376C1.84496 7.37435 1.51275 7.49599 1.25187 7.71874C0.991 7.9415 0.818827 8.25056 0.76672 8.58962C0.714613 8.92868 0.786039 9.27518 0.967988 9.56599C0.97838 9.5826 0.989094 9.59896 1.00012 9.61508C1.31512 10.0755 1.71646 10.5736 1.65877 11.1284L1.63219 11.3842C1.59214 11.7693 1.27415 12.0571 0.954184 12.2751V12.2751C0.771755 12.3995 0.620545 12.5643 0.512367 12.7568C0.404189 12.9492 0.341974 13.1641 0.330582 13.3845C0.31919 13.605 0.35893 13.8251 0.446697 14.0277C0.534464 14.2303 0.667881 14.4098 0.836524 14.5523C1.00517 14.6948 1.20447 14.7963 1.41886 14.849C1.63325 14.9017 1.85692 14.9042 2.0724 14.8561C2.13043 14.8431 2.18745 14.8266 2.24315 14.8067C2.52159 14.7071 2.83106 14.6468 3.10175 14.7659L3.5994 14.9849C3.61586 14.9921 3.62579 15.0091 3.624 15.027V15.027C3.62543 15.3846 3.76042 15.7288 4.00249 15.992C4.24456 16.2552 4.57623 16.4185 4.93246 16.4498C5.28869 16.4811 5.64376 16.3781 5.92802 16.1612C6.05731 16.0625 6.1677 15.9435 6.25565 15.8099C6.43967 15.5304 6.7123 15.277 7.04692 15.277V15.277C7.35783 15.277 7.61745 15.4973 7.80281 15.7469C7.88907 15.8631 7.99305 15.9663 8.11186 16.0524C8.37408 16.2424 8.69303 16.3377 9.01651 16.3229C9.33999 16.308 9.64884 16.1838 9.89254 15.9705V15.9705C10.3085 15.6065 10.7673 15.1624 11.3197 15.1806L12.572 15.2217C13.1498 15.2407 13.6998 15.5445 14.2764 15.5878V15.5878V15.5878C14.8265 15.6291 15.4336 15.5331 15.8963 15.8335C17.1621 16.6555 18.2578 17.7155 19.1218 18.9556C19.3194 19.2393 19.3201 19.6063 19.319 19.952V19.952C19.3176 20.1974 19.3792 20.4391 19.4978 20.6539C19.6164 20.8688 19.7881 21.0496 19.9964 21.1793C20.2048 21.3089 20.4429 21.383 20.6881 21.3944C20.9332 21.4058 21.1772 21.3543 21.3967 21.2446C21.6163 21.1349 21.804 20.9708 21.9421 20.7679C22.0802 20.5651 22.164 20.3302 22.1855 20.0857C22.207 19.8412 22.1654 19.5954 22.0649 19.3715C22.0209 19.2737 21.9664 19.1815 21.9024 19.0966C21.7383 18.8785 21.5286 18.6943 21.3881 18.4603C21.1354 18.0396 20.9297 17.5928 20.7745 17.1279C20.6361 16.7132 20.9212 16.2974 21.2101 15.9691V15.9691C21.3807 15.7752 21.4954 15.5385 21.5416 15.2844C21.5879 15.0302 21.5641 14.7683 21.4727 14.5267V14.5267C21.3079 14.091 21.1069 13.6205 21.2354 13.1727L21.4048 12.5819ZM22.129 10.592C22.1288 10.7035 22.0956 10.8124 22.0335 10.905C21.9715 10.9976 21.8834 11.0697 21.7804 11.1123C21.6774 11.1548 21.564 11.1659 21.4547 11.1441C21.3454 11.1223 21.245 11.0686 21.1662 10.9898C21.0874 10.911 21.0337 10.8106 21.0119 10.7013C20.9901 10.592 21.0012 10.4786 21.0437 10.3756C21.0863 10.2726 21.1584 10.1845 21.251 10.1225C21.3436 10.0604 21.4525 10.0272 21.564 10.027C21.7138 10.027 21.8576 10.0865 21.9635 10.1925C22.0695 10.2984 22.129 10.4422 22.129 10.592ZM20.7972 8.53813C20.9058 8.96697 20.6563 9.39883 20.4004 9.75965V9.75965C20.3608 9.81549 20.3253 9.8739 20.2943 9.93438C20.1496 10.2163 19.8972 10.47 19.5803 10.47V10.47C19.2635 10.47 19.0113 10.2165 18.866 9.935C18.8621 9.92735 18.8581 9.91974 18.854 9.91216V9.91216C18.6987 9.62427 18.6314 9.25756 18.8239 8.99311L19.742 7.7318C19.8298 7.61127 19.9801 7.55818 20.1292 7.55881V7.55881C20.3511 7.55976 20.5794 7.67737 20.6338 7.89244L20.7972 8.53813ZM18.889 14.3152C18.74 14.5752 18.4545 14.7813 18.1642 14.707L16.2625 14.2201C15.996 14.1518 15.8191 13.9094 15.7214 13.6521V13.6521C15.6183 13.3803 15.5913 13.061 15.7647 12.8276L16.1994 12.2425C16.4329 11.9281 16.8979 11.9071 17.28 11.9928V11.9928V11.9928C17.7032 12.0878 18.17 12.2123 18.4057 12.5765L18.9513 13.4192C19.1245 13.6868 19.0476 14.0387 18.889 14.3152V14.3152V14.3152ZM8.00131 5.60729C8.16261 5.4945 8.37339 5.44906 8.54777 5.54033L11.9721 7.33264C12.1791 7.44096 12.2659 7.68586 12.2621 7.91943V7.91943C12.2585 8.14658 12.1687 8.3812 11.9667 8.48507L10.2389 9.37335C9.91997 9.53734 9.53625 9.43758 9.21059 9.2873V9.2873C9.02476 9.20155 8.82266 9.15677 8.618 9.156V9.156C8.59754 9.156 8.57901 9.14576 8.5735 9.12605L7.7495 6.18131C7.6881 5.96191 7.8146 5.73785 8.00131 5.60729V5.60729ZM19.4 7.35328C19.4 7.35375 19.3998 7.35421 19.3996 7.35459L18.4614 8.64203C18.2069 8.99142 17.7395 9.09665 17.3156 9.18137V9.18137V9.18137C16.9008 9.26428 16.4289 9.31865 16.0912 9.06392L15.2693 8.44405C15.1565 8.35897 15.1149 8.21194 15.1283 8.07128V8.07128C15.1445 7.90138 15.2409 7.7363 15.405 7.68938L18.3175 6.85654C18.6082 6.77341 18.9077 6.92806 19.1235 7.13981C19.206 7.22074 19.2984 7.29188 19.3989 7.35136C19.3996 7.35176 19.4 7.35249 19.4 7.35328V7.35328ZM17.596 11.156C17.4845 11.1558 17.3755 11.1226 17.2829 11.0605C17.1903 10.9984 17.1182 10.9102 17.0756 10.8071C17.0331 10.7041 17.0221 10.5907 17.044 10.4814C17.0658 10.372 17.1196 10.2716 17.1985 10.1928C17.2775 10.1141 17.378 10.0604 17.4873 10.0388C17.5967 10.0171 17.7101 10.0283 17.8131 10.071C17.9161 10.1137 18.0041 10.186 18.066 10.2788C18.1279 10.3715 18.161 10.4805 18.161 10.592C18.1607 10.7417 18.1011 10.8851 17.9952 10.9909C17.8892 11.0966 17.7457 11.156 17.596 11.156ZM13.697 8.506C13.5855 8.50581 13.4766 8.47258 13.384 8.41054C13.2914 8.34849 13.2193 8.26039 13.1767 8.15738C13.1342 8.05436 13.1231 7.94104 13.1449 7.83173C13.1667 7.72242 13.2204 7.62201 13.2992 7.5432C13.378 7.46438 13.4784 7.41068 13.5877 7.38889C13.697 7.3671 13.8104 7.37818 13.9134 7.42075C14.0164 7.46331 14.1045 7.53544 14.1665 7.62804C14.2286 7.72064 14.2618 7.82954 14.262 7.941C14.2617 8.09068 14.2021 8.23413 14.0962 8.33987C13.9902 8.44562 13.8467 8.506 13.697 8.506ZM8.617 10.027C8.72851 10.027 8.83751 10.0601 8.93024 10.122C9.02297 10.1839 9.09525 10.2719 9.13797 10.3749C9.18069 10.4779 9.19192 10.5913 9.17023 10.7007C9.14855 10.81 9.09494 10.9105 9.01616 10.9895C8.93738 11.0684 8.83698 11.1222 8.72764 11.144C8.6183 11.1659 8.50493 11.1549 8.40186 11.1124C8.29878 11.0698 8.21063 10.9977 8.14854 10.9051C8.08644 10.8125 8.0532 10.7035 8.053 10.592C8.053 10.4422 8.11253 10.2984 8.21848 10.1925C8.32444 10.0865 8.46815 10.027 8.618 10.027H8.617ZM10.053 10.592V10.592C10.0514 10.2948 10.1561 9.97764 10.4204 9.84179L11.9099 9.07615C12.2609 8.89571 12.6855 9.02948 13.0351 9.2125V9.2125C13.2397 9.31957 13.4671 9.37566 13.698 9.376V9.376C13.7104 9.37497 13.7206 9.38556 13.7192 9.39792L13.4571 11.608C13.3577 12.4458 12.7004 13.1083 11.8633 13.2142L9.4398 13.5207C9.40172 13.5255 9.36314 13.5216 9.32613 13.5115V13.5115C9.21755 13.4818 9.12705 13.4 9.10476 13.2897L9.02143 12.8773C8.92517 12.4008 9.28124 11.9493 9.6269 11.6075C9.65518 11.5796 9.68238 11.5504 9.70841 11.5199C9.9297 11.2613 10.0518 10.9324 10.053 10.592ZM8.95 14.325C9.06146 14.3252 9.17037 14.3584 9.26296 14.4205C9.35556 14.4825 9.42769 14.5706 9.47026 14.6736C9.51282 14.7766 9.52391 14.89 9.50211 14.9993C9.48032 15.1086 9.42662 15.209 9.34781 15.2878C9.26899 15.3666 9.16859 15.4203 9.05928 15.4421C8.94996 15.4639 8.83664 15.4528 8.73363 15.4103C8.63061 15.3677 8.54252 15.2956 8.48047 15.203C8.41842 15.1104 8.3852 15.0015 8.385 14.89C8.385 14.7402 8.44453 14.5964 8.55048 14.4905C8.65644 14.3845 8.80015 14.325 8.95 14.325ZM10.3015 14.4205C10.2244 14.2003 10.3392 13.9105 10.5707 13.8813L12.4786 13.6407C12.7396 13.6078 12.949 13.888 12.9479 14.151V14.151V14.151C12.9467 14.4295 12.7476 14.7274 12.4692 14.7184L10.5979 14.6577C10.46 14.6532 10.3471 14.5507 10.3015 14.4205V14.4205ZM14.2042 9.56208C14.2257 9.38058 14.3485 9.23063 14.4999 9.12821V9.12821C14.7348 8.96924 15.0552 8.90913 15.2818 9.07988L15.7902 9.46303C16.1113 9.70505 16.1712 10.1576 16.1623 10.5596V10.5596V10.5596C16.1528 10.9906 16.1598 11.4596 15.9024 11.8054L15.4735 12.3817C15.2498 12.6822 14.8309 12.7434 14.4569 12.7227V12.7227V12.7227C14.1666 12.7067 13.8591 12.4749 13.8933 12.1862L14.2042 9.56208ZM20.129 5.56C20.2405 5.56 20.3496 5.59308 20.4423 5.65506C20.5351 5.71703 20.6074 5.80511 20.6501 5.90817C20.6928 6.01123 20.7039 6.12463 20.6822 6.23403C20.6604 6.34344 20.6067 6.44394 20.5278 6.52281C20.4489 6.60169 20.3484 6.6554 20.239 6.67717C20.1296 6.69893 20.0162 6.68776 19.9132 6.64507C19.8101 6.60238 19.722 6.53009 19.6601 6.43735C19.5981 6.3446 19.565 6.23555 19.565 6.124C19.5653 5.97433 19.6249 5.83088 19.7308 5.72513C19.8368 5.61939 19.9793 5.56 20.129 5.56ZM18.3004 5.35334C18.5804 5.48349 18.6947 5.81523 18.694 6.124V6.124V6.124C18.694 6.18454 18.6626 6.23882 18.6044 6.25544L15.7298 7.07654C15.2901 7.20215 14.8351 6.95985 14.4462 6.71928V6.71928C14.2213 6.5802 13.9624 6.50604 13.698 6.505V6.505C13.6251 6.505 13.5605 6.4642 13.5465 6.39262L13.1651 4.43806C13.1022 4.11564 13.3314 3.81319 13.6066 3.63376V3.63376C13.8308 3.48756 14.1139 3.40744 14.3566 3.52027L18.3004 5.35334ZM12.826 1.87C12.9375 1.87 13.0465 1.90306 13.1392 1.96499C13.232 2.02691 13.3043 2.11494 13.347 2.21794C13.3897 2.32094 13.4009 2.43429 13.3792 2.54367C13.3576 2.65305 13.3039 2.75354 13.2252 2.83246C13.1464 2.91138 13.046 2.96517 12.9366 2.98704C12.8273 3.00892 12.7139 2.99789 12.6109 2.95536C12.5078 2.91282 12.4196 2.84069 12.3575 2.74807C12.2954 2.65545 12.2622 2.54651 12.262 2.435C12.262 2.28533 12.3214 2.14177 12.4271 2.03584C12.5329 1.92991 12.6763 1.87027 12.826 1.87ZM10.9162 3.25407C11.2764 3.14354 11.653 3.33476 11.9498 3.56685V3.56685V3.56685C12.2624 3.81136 12.5874 4.09395 12.6635 4.48346L13.0232 6.32464C13.0602 6.51385 12.9598 6.6993 12.8091 6.81957V6.81957C12.6477 6.94841 12.426 7.0049 12.243 6.90917L8.92672 5.17438C8.69355 5.0524 8.60317 4.77042 8.61596 4.50758V4.50758C8.63007 4.21768 8.77002 3.91279 9.04749 3.82763L10.9162 3.25407ZM7.182 3.87C7.29351 3.87 7.40251 3.90306 7.49524 3.96499C7.58796 4.02691 7.66025 4.11494 7.70297 4.21794C7.74569 4.32094 7.75692 4.43429 7.73523 4.54367C7.71355 4.65305 7.65994 4.75354 7.58116 4.83246C7.50238 4.91137 7.40198 4.96517 7.29264 4.98704C7.1833 5.00892 7.06993 4.99789 6.96686 4.95536C6.86378 4.91282 6.77563 4.84069 6.71354 4.74807C6.65144 4.65545 6.6182 4.54651 6.618 4.435C6.618 4.28533 6.67739 4.14177 6.78313 4.03584C6.88887 3.92991 7.03233 3.87027 7.182 3.87ZM7.141 5.866C7.14159 5.866 7.14211 5.8664 7.14227 5.86697L7.9595 8.7849C8.03479 9.05375 7.88496 9.32869 7.67456 9.51222V9.51222C7.49975 9.66471 7.26936 9.76458 7.04459 9.70725L3.64347 8.83974C3.63065 8.83646 3.62229 8.82413 3.624 8.811V8.811V8.811C3.62123 8.26832 3.62006 7.62951 4.02505 7.26826L5.69439 5.77921C5.93206 5.56721 6.29531 5.60146 6.58441 5.73506V5.73506C6.7592 5.81584 6.94853 5.86038 7.141 5.866V5.866ZM2.336 13.453C2.336 13.5646 2.30292 13.6736 2.24095 13.7663C2.17898 13.8591 2.09089 13.9314 1.98783 13.9741C1.88478 14.0168 1.77137 14.0279 1.66197 14.0062C1.55256 13.9844 1.45207 13.9307 1.37319 13.8518C1.29431 13.7729 1.2406 13.6724 1.21884 13.563C1.19707 13.4536 1.20824 13.3402 1.25093 13.2372C1.29362 13.1341 1.36591 13.046 1.45866 12.9841C1.55141 12.9221 1.66045 12.889 1.772 12.889C1.9215 12.8893 2.0648 12.9488 2.17052 13.0545C2.27623 13.1602 2.33574 13.3035 2.336 13.453ZM2.06584 12.0482C2.06594 12.0481 2.06601 12.0479 2.06602 12.0478L2.16901 11.0626C2.21846 10.5895 2.6392 10.2494 3.02517 9.97138V9.97138V9.97138C3.40814 9.69554 3.86813 9.41376 4.32545 9.53038L6.91654 10.1911C7.08537 10.2342 7.18335 10.4067 7.18242 10.5809V10.5809C7.1816 10.7345 7.10352 10.8857 6.96037 10.9414L3.11583 12.4374C2.96607 12.4957 2.79873 12.4474 2.6749 12.345C2.49954 12.2 2.29106 12.098 2.06616 12.0493C2.06566 12.0491 2.06548 12.0485 2.06584 12.0482V12.0482ZM2.188 8.246C2.29951 8.246 2.40851 8.27906 2.50124 8.34099C2.59396 8.40292 2.66625 8.49094 2.70897 8.59394C2.75169 8.69694 2.76292 8.81029 2.74123 8.91967C2.71955 9.02905 2.66594 9.12954 2.58716 9.20846C2.50838 9.28738 2.40798 9.34117 2.29864 9.36304C2.1893 9.38492 2.07593 9.37389 1.97286 9.33136C1.86978 9.28882 1.78163 9.21669 1.71954 9.12407C1.65744 9.03145 1.6242 8.92251 1.624 8.811C1.624 8.66133 1.68339 8.51777 1.78913 8.41184C1.89487 8.30591 2.03833 8.24627 2.188 8.246ZM3.3844 14.3429C3.18376 14.2546 3.1117 14.0081 3.16555 13.7956C3.18276 13.7277 3.19479 13.6584 3.20144 13.5882V13.5882C3.23413 13.2436 3.37892 12.8729 3.70158 12.7473L6.8524 11.5213C7.15925 11.4018 7.49956 11.5402 7.76315 11.7375V11.7375V11.7375C7.9822 11.9015 8.10163 12.2225 7.94145 12.4444L6.92125 13.8573C6.70774 14.153 6.19898 14.0871 5.90557 13.8704V13.8704C5.67001 13.6965 5.38669 13.5991 5.09396 13.5914C4.80123 13.5838 4.51322 13.6663 4.26891 13.8277C4.12974 13.9197 4.00858 14.0347 3.91015 14.167C3.78779 14.3315 3.57205 14.4254 3.3844 14.3429V14.3429ZM5.059 15.591C4.94754 15.5908 4.83863 15.5576 4.74604 15.4955C4.65344 15.4335 4.5813 15.3454 4.53874 15.2424C4.49618 15.1394 4.48509 15.026 4.50689 14.9167C4.52868 14.8074 4.58238 14.707 4.66119 14.6282C4.74001 14.5494 4.84041 14.4957 4.94972 14.4739C5.05904 14.4521 5.17235 14.4632 5.27537 14.5057C5.37839 14.5483 5.46648 14.6204 5.52853 14.713C5.59058 14.8056 5.6238 14.9145 5.624 15.026C5.624 15.1759 5.56447 15.3196 5.45851 15.4255C5.35256 15.5315 5.20885 15.591 5.059 15.591ZM7.97325 13.0333C8.1461 12.7708 8.55167 12.8603 8.59797 13.1712V13.1712C8.62446 13.3491 8.50613 13.5133 8.34344 13.59C8.16421 13.6744 8.00335 13.7957 7.87194 13.947C7.72146 14.1203 7.61554 14.3263 7.56165 14.5472C7.53048 14.6749 7.42348 14.777 7.292 14.777V14.777C7.09167 14.777 6.97166 14.5543 7.08184 14.387L7.97325 13.0333ZM14.382 14.72C14.2705 14.7198 14.1616 14.6866 14.069 14.6245C13.9764 14.5625 13.9043 14.4744 13.8617 14.3714C13.8192 14.2684 13.8081 14.155 13.8299 14.0457C13.8517 13.9364 13.9054 13.836 13.9842 13.7572C14.063 13.6784 14.1634 13.6247 14.2727 13.6029C14.382 13.5811 14.4954 13.5922 14.5984 13.6347C14.7014 13.6773 14.7895 13.7494 14.8515 13.842C14.9136 13.9346 14.9468 14.0435 14.947 14.155C14.947 14.3049 14.8875 14.4486 14.7815 14.5545C14.6756 14.6605 14.5318 14.72 14.382 14.72ZM20.755 20.515C20.6435 20.515 20.5344 20.4819 20.4417 20.42C20.3489 20.358 20.2766 20.2699 20.2339 20.1668C20.1912 20.0638 20.1801 19.9504 20.2018 19.841C20.2236 19.7316 20.2773 19.6311 20.3562 19.5522C20.4351 19.4733 20.5356 19.4196 20.645 19.3978C20.7544 19.3761 20.8678 19.3872 20.9708 19.4299C21.0739 19.4726 21.162 19.5449 21.2239 19.6377C21.2859 19.7304 21.319 19.8395 21.319 19.951C21.3187 20.1005 21.2592 20.2438 21.1535 20.3495C21.0478 20.4552 20.9045 20.5147 20.755 20.515ZM20.755 18.5155C20.755 18.5152 20.7548 18.515 20.7545 18.515C20.564 18.5151 20.3755 18.5532 20.2 18.6272V18.6272C19.9304 18.7407 19.5805 18.7133 19.4092 18.4763C18.428 17.1188 17.1733 15.9801 15.7246 15.1346C15.6183 15.0726 15.59 14.9315 15.6477 14.8228V14.8228C15.6953 14.733 15.795 14.6787 15.8939 14.7023L17.8467 15.1694C18.3988 15.3014 18.7934 15.7908 19.2369 16.1451V16.1451C19.3075 16.2015 19.3828 16.2508 19.4619 16.2926C19.7978 16.4701 20.1281 16.7295 20.2331 17.0946C20.371 17.5739 20.57 18.0344 20.8258 18.4644C20.8411 18.4901 20.8213 18.5208 20.7915 18.518C20.7797 18.5168 20.7678 18.516 20.7555 18.516C20.7552 18.516 20.755 18.5158 20.755 18.5155V18.5155ZM20.129 15.591C20.0175 15.591 19.9085 15.558 19.8158 15.496C19.723 15.4341 19.6507 15.3461 19.608 15.2431C19.5653 15.1401 19.5541 15.0267 19.5758 14.9173C19.5974 14.808 19.6511 14.7075 19.7298 14.6285C19.8086 14.5496 19.909 14.4958 20.0184 14.474C20.1277 14.4521 20.2411 14.4631 20.3441 14.5056C20.4472 14.5482 20.5354 14.6203 20.5975 14.7129C20.6596 14.8056 20.6928 14.9145 20.693 15.026C20.693 15.1757 20.6336 15.3192 20.5279 15.4252C20.4221 15.5311 20.2787 15.5907 20.129 15.591ZM20.714 13.1756C20.6378 13.442 20.3469 13.579 20.0702 13.5916V13.5916C19.8503 13.6016 19.6189 13.5321 19.4992 13.3474L18.7355 12.1686C18.577 11.9238 18.6471 11.6021 18.8032 11.3558V11.3558C18.9369 11.1451 19.1468 10.971 19.3963 10.971H19.5805C19.9389 10.971 20.2369 11.2288 20.4658 11.5045C20.481 11.5228 20.4966 11.5407 20.5127 11.5583V11.5583C20.7714 11.84 20.9887 12.2169 20.8833 12.5846L20.714 13.1756Z" fill="#65D23F"/>
</svg>
